<?xml version="1.0" encoding="UTF-8" standalone="no"?>
<!-- Uploaded to: SVG Repo, www.svgrepo.com, Generator: SVG Repo Mixer Tools -->

<svg
   width="583.33331"
   height="583.33331"
   viewBox="0 0 17.499999 17.499999"
   fill="none"
   version="1.1"
   id="svg6"
   sodipodi:docname="check.svg"
   inkscape:version="1.1.2 (0a00cf5339, 2022-02-04)"
   xmlns:inkscape="http://www.inkscape.org/namespaces/inkscape"
   xmlns:sodipodi="http://sodipodi.sourceforge.net/DTD/sodipodi-0.dtd"
   xmlns="http://www.w3.org/2000/svg"
   xmlns:svg="http://www.w3.org/2000/svg">
  <defs
     id="defs10" />
  <sodipodi:namedview
     id="namedview8"
     pagecolor="#ffffff"
     bordercolor="#666666"
     borderopacity="1.0"
     inkscape:pageshadow="2"
     inkscape:pageopacity="0.0"
     inkscape:pagecheckerboard="0"
     showgrid="false"
     inkscape:zoom="0.83375"
     inkscape:cx="291.45427"
     inkscape:cy="291.45427"
     inkscape:window-width="1918"
     inkscape:window-height="1020"
     inkscape:window-x="0"
     inkscape:window-y="1114"
     inkscape:window-maximized="1"
     inkscape:current-layer="svg6" />
  <path
     d="m 14.75,17.5 h -12 C 2.02065,17.5 1.32118,17.2103 0.80546,16.6945 0.28973,16.1788 0,15.4793 0,14.75 v -12 C 0,2.02065 0.28973,1.32118 0.80546,0.80546 1.32118,0.28973 2.02065,0 2.75,0 h 8.86 c 0.1989,0 0.3897,0.07902 0.5303,0.21967 C 12.281,0.36032 12.36,0.55109 12.36,0.75 12.36,0.94891 12.281,1.13968 12.1403,1.28033 11.9997,1.42098 11.8089,1.5 11.61,1.5 H 2.75 C 2.41848,1.5 2.10054,1.6317 1.86612,1.86612 1.6317,2.10054 1.5,2.41848 1.5,2.75 v 12 c 0,0.3315 0.1317,0.6495 0.36612,0.8839 C 2.10054,15.8683 2.41848,16 2.75,16 h 12 c 0.3315,0 0.6495,-0.1317 0.8839,-0.3661 C 15.8683,15.3995 16,15.0815 16,14.75 V 7.04 C 16,6.8411 16.079,6.65032 16.2197,6.50967 16.3603,6.36902 16.5511,6.29 16.75,6.29 c 0.1989,0 0.3897,0.07902 0.5303,0.21967 C 17.421,6.65032 17.5,6.8411 17.5,7.04 v 7.71 c 0,0.7293 -0.2897,1.4288 -0.8055,1.9445 C 16.1788,17.2103 15.4793,17.5 14.75,17.5 Z"
     fill="#000000"
     id="path2" />
  <path
     d="M 7.25,12 C 7.0571,11.9852 6.8776,11.8955 6.75,11.75 l -2.99999,-3 C 3.68317,8.61 3.66136,8.4528 3.68759,8.2999 3.71382,8.1471 3.78679,8.0061 3.89646,7.8964 4.00613,7.7868 4.1471,7.7138 4.29996,7.6876 4.45282,7.6613 4.61006,7.6831 4.75001,7.75 L 7.22,10.22 15.75,1.74998 c 0.14,-0.06684 0.2972,-0.08865 0.4501,-0.06242 0.1528,0.02623 0.2938,0.0992 0.4035,0.20887 0.1096,0.10967 0.1826,0.25064 0.2088,0.4035 0.0263,0.15286 0.0045,0.3101 -0.0624,0.45005 L 7.75,11.75 C 7.6224,11.8955 7.443,11.9852 7.25,12 Z"
     fill="#000000"
     id="path4" />
</svg>
