<svg width="58" height="47" viewBox="0 0 58 47" fill="none" xmlns="http://www.w3.org/2000/svg">
<path d="M45.2383 9.97168C49.1467 9.97179 50.5781 12.0447 50.5781 12.8877C50.578 13.2292 50.394 13.5332 49.8018 13.5332C47.012 13.5332 45.2636 15.2052 43.9092 17.4336C42.5533 19.6643 28.0816 42.9674 27.0938 44.5557C26.6595 45.3096 26.0369 45.9333 25.2861 46.3604C24.5354 46.7911 23.6854 47.0111 22.8242 47C21.963 47 21.1163 46.7765 20.3691 46.3457C19.6221 45.9149 18.9997 45.2951 18.5654 44.5449C18.5476 44.5163 7.07044 26.1521 5.51465 23.6914C3.46097 20.3489 2.76171 19.3721 0.899414 19.3721C0.163706 19.3719 -0.00191217 18.9596 -0.00195312 18.5771C-0.00195312 17.5039 1.70192 15.881 4.79688 15.8809C7.13027 15.8809 9.84719 16.8022 12.1953 20.583C12.2433 20.6592 17.9547 29.7402 22.2207 36.4785C22.3825 36.7345 22.5118 36.8906 22.7656 36.8906C23.0193 36.8904 23.2 36.6381 23.292 36.4785C25.4046 33.0766 35.3896 17.1914 36.6777 15.1934C39.1877 11.2458 42.2904 9.97168 45.2383 9.97168ZM53.1992 15.8809C56.2942 15.881 57.998 17.5039 57.998 18.5771C57.998 18.9596 57.825 19.3719 57.0967 19.3721H57.0928C55.2305 19.3721 54.5349 20.3489 52.4775 23.6914C50.9534 26.1544 39.4561 44.5449 39.4561 44.5449C39.0218 45.2951 38.3994 45.9149 37.6523 46.3457C36.9052 46.7765 36.0587 47.0037 35.2012 47C34.4137 47 33.6374 46.8135 32.9346 46.457C32.2316 46.0968 31.62 45.5771 31.1562 44.9346C31.0128 44.786 30.9208 44.5965 30.8877 44.3887C30.9208 44.1809 31.0129 43.9879 31.1562 43.832C31.2517 43.6691 45.7243 20.7044 45.8008 20.583C48.1747 16.8022 50.8732 15.8809 53.1992 15.8809ZM12.6914 9.96777C15.6284 9.96777 18.7429 11.2417 21.2529 15.1895C22.53 17.1913 26.8175 23.981 26.8838 24.1035C26.9572 24.2037 26.9943 24.3261 26.998 24.4521C26.9944 24.5821 26.9535 24.7087 26.8799 24.8164C26.7943 24.9368 23.2363 30.5843 23.1406 30.7402C23.0965 30.8219 23.0262 30.8922 22.9453 30.9404C22.8644 30.9887 22.7724 31.0146 22.6768 31.0146C22.5848 31.0146 22.4969 30.9884 22.416 30.9365C22.3387 30.8882 22.2758 30.8141 22.2354 30.7324C22.1435 30.6004 15.3931 19.6653 14.0352 17.4297C12.6772 15.1978 10.9255 13.5305 8.13965 13.5303C7.54722 13.5303 7.36629 13.2254 7.36621 12.8838C7.36621 12.0407 8.77985 9.96777 12.6885 9.96777H12.6914ZM28.9775 0C30.0669 0 31.1382 0.300912 32.0693 0.869141C33.0005 1.43737 33.7626 2.25469 34.2705 3.23145C34.3625 3.48368 34.5314 3.69898 34.752 3.84375C34.9727 3.98854 35.238 4.05951 35.5029 4.04102C38.5651 4.04102 41.0684 6.24348 41.0684 7.55078C41.0682 8.19673 40.5709 8.49778 39.8828 8.62402C37.5644 9.02512 36.3241 9.93099 34.4951 12.7754C32.486 15.9502 29.6378 20.3913 29.4932 20.627C29.2576 20.9761 29.1246 21.0098 28.959 21.0098C28.7936 21.0097 28.6687 20.9721 28.4443 20.627C28.2897 20.3929 25.4777 15.9512 23.4424 12.7832C21.6612 9.94969 20.3768 9.02808 18.0547 8.62695C17.3738 8.50068 16.8691 8.19993 16.8691 7.55371C16.8917 6.24269 19.4088 4.04504 22.4521 4.04492V4.04102C22.7171 4.05959 22.9786 3.98859 23.2031 3.84375C23.4239 3.69895 23.5972 3.48388 23.6855 3.23145C24.1898 2.25469 24.9519 1.44108 25.8867 0.869141C26.8177 0.301082 27.8883 4.85202e-05 28.9775 0Z" fill="#D5C9BE"/>
</svg>
