<svg width="377" height="365" viewBox="0 0 377 365" fill="none" xmlns="http://www.w3.org/2000/svg">
<path fill-rule="evenodd" clip-rule="evenodd" d="M4.63945 94.5225C-2.11893 157.317 -1.81761 229.741 7.5868 292.28C12.7906 326.885 41.033 353.413 75.8953 356.445L112.33 359.61C188.301 366.216 264.7 366.216 340.672 359.61L377.106 356.445C411.969 353.413 440.212 326.885 445.415 292.28C454.819 229.741 455.121 157.322 448.361 94.5261C447.488 87.2462 446.506 79.9761 445.415 72.7181C440.212 38.1135 411.969 11.5844 377.106 8.55383L340.672 5.3867C264.7 -1.21728 188.301 -1.21728 112.33 5.3867L75.8953 8.55383C41.033 11.5844 12.7906 38.1135 7.5868 72.7181C6.49562 79.9747 5.51325 87.2438 4.63945 94.5225ZM115.463 41.4384C189.348 35.0156 263.653 35.0156 337.538 41.4384L373.972 44.6055C392.169 46.1874 406.912 60.0356 409.628 78.0992C409.911 79.9751 410.186 81.8518 410.454 83.7295L276.294 158.263C245.328 175.467 207.673 175.467 176.706 158.263L42.5485 83.7304C42.8153 81.8525 43.0899 79.9754 43.3719 78.0992C46.0884 60.0356 60.8309 46.1874 79.0291 44.6055L115.463 41.4384ZM414.88 122.666C419.561 177.375 417.809 232.498 409.628 286.898C406.912 304.962 392.169 318.81 373.972 320.393L337.538 323.56C263.653 329.982 189.348 329.982 115.463 323.56L79.0291 320.393C60.8309 318.81 46.0884 304.962 43.3719 286.898C35.1914 232.498 33.4408 177.377 38.1204 122.667L159.132 189.896C201.029 213.172 251.972 213.172 293.867 189.896L414.88 122.666Z" fill="url(#paint0_linear_4415_329)"/>
<defs>
<linearGradient id="paint0_linear_4415_329" x1="-19.5931" y1="414.75" x2="530.286" y2="273.43" gradientUnits="userSpaceOnUse">
<stop offset="0.0001" stop-color="#D74596"/>
<stop offset="0.365877" stop-color="#F2464E"/>
<stop offset="0.685771" stop-color="#857ADD"/>
<stop offset="1" stop-color="#0192DE"/>
</linearGradient>
</defs>
</svg>
