<svg width="17" height="26" viewBox="0 0 17 26" fill="none" xmlns="http://www.w3.org/2000/svg">
<path d="M9.66504 7.66699C9.66504 7.04815 9.91105 6.45419 10.3486 6.0166C10.7862 5.57902 11.3802 5.33301 11.999 5.33301H14.999V2H11.999C10.4961 2 9.05489 2.59745 7.99219 3.66016C6.92948 4.72286 6.33203 6.1641 6.33203 7.66699V10.333C6.33203 10.8853 5.88432 11.333 5.33203 11.333H2.33203V14.667H5.33203C5.88432 14.667 6.33203 15.1147 6.33203 15.667V24H9.66504V15.667C9.66504 15.1148 10.1129 14.6672 10.665 14.667H13.8848L14.7178 11.333H10.665C10.1129 11.3328 9.66504 10.8852 9.66504 10.333V7.66699ZM11.665 9.33301H15.999C16.3068 9.33311 16.5977 9.47514 16.7871 9.71777C16.9766 9.96049 17.0434 10.2774 16.9688 10.5762L15.6357 15.9092C15.5245 16.3543 15.1239 16.667 14.665 16.667H11.665V25C11.665 25.5523 11.2173 26 10.665 26H5.33203C4.77975 26 4.33203 25.5523 4.33203 25V16.667H1.33203C0.779855 16.667 0.332207 16.2191 0.332031 15.667V10.333L0.336914 10.2314C0.387948 9.72701 0.814134 9.33301 1.33203 9.33301H4.33203V7.66699C4.33203 5.63367 5.13937 3.6829 6.57715 2.24512C8.01493 0.807338 9.9657 0 11.999 0H15.999L16.1006 0.00488281C16.605 0.0559169 16.999 0.482103 16.999 1V6.33301C16.999 6.88518 16.5512 7.33283 15.999 7.33301H11.999C11.9106 7.33301 11.8252 7.36815 11.7627 7.43066C11.7002 7.49318 11.665 7.57859 11.665 7.66699V9.33301Z" fill="#D5C9BE"/>
</svg>
