<svg width="24" height="24" viewBox="0 0 24 24" fill="none" xmlns="http://www.w3.org/2000/svg">
<path d="M15 12C15 10.3432 13.6568 9 12 9C10.3431 9 9 10.3431 9 12C9 13.6568 10.3432 15 12 15C13.6568 15 15 13.6568 15 12ZM17 12C17 14.7614 14.7614 17 12 17C9.23857 17 7 14.7614 7 12C7 9.23858 9.23858 7 12 7C14.7614 7 17 9.23857 17 12Z" fill="#D5C9BE"/>
<path d="M21.665 6.66504C21.6649 4.27199 19.7251 2.33205 17.332 2.33203H6.66504C4.27207 2.33221 2.33221 4.27207 2.33203 6.66504V17.332C2.33205 19.7251 4.27199 21.6649 6.66504 21.665H17.332C19.7252 21.665 21.665 19.7252 21.665 17.332V6.66504ZM23.665 17.332C23.665 20.8298 20.8298 23.665 17.332 23.665H6.66504C3.16738 23.6649 0.332047 20.8297 0.332031 17.332V6.66504C0.332205 3.1675 3.1675 0.332205 6.66504 0.332031H17.332C20.8297 0.332047 23.6649 3.16738 23.665 6.66504V17.332Z" fill="#D5C9BE"/>
<path d="M17 6.00098C17 5.4487 17.4477 5 18 5C18.5523 5 19 5.44772 19 6C19 6.55228 18.5523 7.00098 18 7.00098C17.4477 7.00098 17 6.55326 17 6.00098Z" fill="#D5C9BE"/>
</svg>
