<svg width="24" height="24" viewBox="0 0 24 24" fill="none" xmlns="http://www.w3.org/2000/svg">
<path d="M21.665 3.99902C21.665 3.07866 20.9193 2.33221 19.999 2.33203H3.99902C3.07855 2.33203 2.33203 3.07855 2.33203 3.99902V19.999C2.33221 20.9193 3.07866 21.665 3.99902 21.665H19.999C20.9192 21.6649 21.6649 20.9192 21.665 19.999V3.99902ZM23.665 19.999C23.6649 22.0238 22.0238 23.6649 19.999 23.665H3.99902C1.97409 23.665 0.332207 22.0239 0.332031 19.999V3.99902C0.332031 1.97398 1.97398 0.332031 3.99902 0.332031H19.999C22.0239 0.332207 23.665 1.97409 23.665 3.99902V19.999Z" fill="#D5C9BE"/>
<path d="M5.66797 17.335V10.668C5.66797 10.1157 6.11568 9.66797 6.66797 9.66797C7.22025 9.66797 7.66797 10.1157 7.66797 10.668V17.335C7.66779 17.8871 7.22014 18.335 6.66797 18.335C6.11579 18.335 5.66814 17.8871 5.66797 17.335Z" fill="#D5C9BE"/>
<path d="M5.66797 6.68164V6.66797C5.66797 6.11568 6.11568 5.66797 6.66797 5.66797C7.22025 5.66797 7.66797 6.11568 7.66797 6.66797V6.68164C7.66779 7.23377 7.22014 7.68164 6.66797 7.68164C6.1158 7.68164 5.66815 7.23377 5.66797 6.68164Z" fill="#D5C9BE"/>
<path d="M11 17.335V10.668C11 10.1157 11.4477 9.66797 12 9.66797C12.5523 9.66797 13 10.1157 13 10.668V17.335C12.9998 17.8871 12.5522 18.335 12 18.335C11.4478 18.335 11.0002 17.8871 11 17.335Z" fill="#D5C9BE"/>
<path d="M16.333 17.335V13.335C16.333 12.8929 16.1573 12.4688 15.8447 12.1562C15.5323 11.8439 15.1088 11.6681 14.667 11.668C14.225 11.668 13.8008 11.8437 13.4883 12.1562C13.1757 12.4688 13 12.8929 13 13.335C12.9998 13.8871 12.5522 14.335 12 14.335C11.4478 14.335 11.0002 13.8871 11 13.335C11 12.3625 11.3866 11.4298 12.0742 10.7422C12.7619 10.0546 13.6945 9.66797 14.667 9.66797C15.6393 9.66805 16.5722 10.0546 17.2598 10.7422C17.9472 11.4298 18.333 12.3627 18.333 13.335V17.335C18.3328 17.8871 17.8852 18.335 17.333 18.335C16.781 18.3348 16.3332 17.887 16.333 17.335Z" fill="#D5C9BE"/>
</svg>
