<svg width="26" height="22" viewBox="0 0 26 22" fill="none" xmlns="http://www.w3.org/2000/svg">
<path fill-rule="evenodd" clip-rule="evenodd" d="M0.738254 6.13757C0.364734 9.6081 0.381388 13.6108 0.901148 17.0672C1.18875 18.9797 2.74964 20.4458 4.6764 20.6134L6.69004 20.7884C10.8888 21.1534 15.1112 21.1534 19.31 20.7884L21.3236 20.6134C23.2504 20.4458 24.8113 18.9797 25.0989 17.0672C25.6187 13.6108 25.6353 9.60837 25.2617 6.13777C25.2135 5.73542 25.1592 5.33363 25.0989 4.93249C24.8113 3.01997 23.2504 1.55377 21.3236 1.38628L19.31 1.21124C15.1112 0.846253 10.8888 0.846253 6.69004 1.21124L4.6764 1.38628C2.74964 1.55377 1.18875 3.01997 0.901148 4.93249C0.840841 5.33355 0.786548 5.73529 0.738254 6.13757ZM6.86324 3.20373C10.9467 2.84876 15.0533 2.84876 19.1368 3.20373L21.1504 3.37877C22.1561 3.4662 22.9709 4.23156 23.1211 5.22989C23.1367 5.33357 23.1519 5.43729 23.1667 5.54107L15.752 9.66037C14.0405 10.6112 11.9595 10.6112 10.248 9.66037L2.8334 5.54112C2.84815 5.43733 2.86332 5.33359 2.87891 5.22989C3.02904 4.23156 3.84383 3.4662 4.8496 3.37877L6.86324 3.20373ZM23.4113 7.69302C23.67 10.7166 23.5732 13.7632 23.1211 16.7697C22.9709 17.7681 22.1561 18.5334 21.1504 18.6209L19.1368 18.796C15.0533 19.1509 10.9467 19.1509 6.86324 18.796L4.8496 18.6209C3.84383 18.5334 3.02904 17.7681 2.87891 16.7697C2.42679 13.7632 2.33004 10.7168 2.58867 7.69306L9.27669 11.4086C11.5923 12.695 14.4077 12.695 16.7232 11.4086L23.4113 7.69302Z" fill="#268CDE"/>
</svg>
