<svg width="24" height="29" viewBox="0 0 24 29" fill="none" xmlns="http://www.w3.org/2000/svg">
<path fill-rule="evenodd" clip-rule="evenodd" d="M5.66663 12.3333C5.66663 8.83554 8.50216 6 12 6C15.4977 6 18.3333 8.83554 18.3333 12.3333C18.3333 15.8312 15.4977 18.6667 12 18.6667C8.50216 18.6667 5.66663 15.8312 5.66663 12.3333ZM12 8C9.60677 8 7.66663 9.9401 7.66663 12.3333C7.66663 14.7265 9.60677 16.6667 12 16.6667C14.3932 16.6667 16.3333 14.7265 16.3333 12.3333C16.3333 9.9401 14.3932 8 12 8Z" fill="#268CDE"/>
<path fill-rule="evenodd" clip-rule="evenodd" d="M0.699144 10.8092C1.17158 5.07773 5.96112 0.666748 11.712 0.666748H12.288C18.0389 0.666748 22.8284 5.07773 23.3008 10.8092C23.5547 13.8881 22.6036 16.9453 20.648 19.3369L14.2573 27.1526C13.0907 28.5794 10.9093 28.5794 9.74267 27.1526L3.35194 19.3369C1.3964 16.9453 0.445357 13.8881 0.699144 10.8092ZM11.712 2.66675C7.00199 2.66675 3.0793 6.27939 2.69238 10.9735C2.48116 13.5359 3.27269 16.0803 4.90024 18.0709L11.2909 25.8866C11.6575 26.3347 12.3425 26.3347 12.7091 25.8866L19.0997 18.0709C20.7273 16.0803 21.5188 13.5359 21.3076 10.9735C20.9207 6.27939 16.998 2.66675 12.288 2.66675H11.712Z" fill="#268CDE"/>
</svg>
