<svg width="25" height="24" viewBox="0 0 25 24" fill="none" xmlns="http://www.w3.org/2000/svg">
<path fill-rule="evenodd" clip-rule="evenodd" d="M3.78704 9.14189C6.17014 14.331 10.4108 18.4566 15.6824 20.6921L15.6991 20.6992L16.7175 21.153C18.0144 21.7309 19.5387 21.3205 20.3701 20.1697L22.0693 17.8181C22.1731 17.6745 22.1463 17.4748 22.0084 17.3634L19.0421 14.9704C18.8947 14.8514 18.6777 14.8792 18.5649 15.0313L17.4105 16.5892C17.1301 16.9676 16.6237 17.099 16.1948 16.9049C12.2529 15.1209 9.08529 11.9533 7.30139 8.01143C7.10723 7.58241 7.2387 7.07607 7.61703 6.7957L9.17487 5.64122C9.32709 5.52841 9.35481 5.31158 9.23583 5.16411L6.84244 2.19739C6.7312 2.0595 6.53155 2.03272 6.38791 2.13642L4.02351 3.8433C2.86512 4.67955 2.45719 6.21667 3.04847 7.51727L3.78626 9.14016L3.78704 9.14189ZM14.8932 22.5298C9.16523 20.0984 4.55807 15.6144 1.96868 9.97462L1.96712 9.97129L1.22779 8.345C0.242324 6.17733 0.922217 3.61545 2.85287 2.2217L5.21726 0.514817C6.22275 -0.211064 7.62039 -0.0235835 8.39904 0.941604L10.7924 3.90834C11.6252 4.94057 11.4312 6.45842 10.3656 7.24808L9.47295 7.90962C10.9809 10.8354 13.3707 13.2253 16.2965 14.7332L16.9581 13.8405C17.7477 12.775 19.2656 12.581 20.2979 13.4138L23.2641 15.8068C24.2296 16.5857 24.4169 17.984 23.6904 18.9894L21.9912 21.341C20.6055 23.259 18.0649 23.943 15.9036 22.98L14.8932 22.5298Z" fill="#268CDE"/>
</svg>
