<svg width="26" height="24" viewBox="0 0 26 24" fill="none" xmlns="http://www.w3.org/2000/svg">
<path d="M24.6378 0.400089C24.9862 0.264607 25.3808 0.334567 25.6612 0.58173C25.9065 0.797908 26.0282 1.11774 25.9942 1.4372L25.9698 1.57392L20.6368 22.9079C20.5494 23.2573 20.2808 23.5325 19.9337 23.6286C19.5865 23.7248 19.2148 23.6265 18.9601 23.3718L13.1075 17.5192L9.7999 21.9313C9.57675 22.2289 9.20706 22.3786 8.83994 22.319C8.4729 22.2595 8.16954 22.0008 8.05186 21.6481L5.51572 14.0407L0.552831 11.5593C0.199174 11.3824 -0.0172036 11.0138 0.00107352 10.6188C0.0194111 10.2237 0.269152 9.87646 0.637792 9.7331L24.6378 0.400089ZM3.46494 10.779L6.78037 12.4372L6.86728 12.486C7.06166 12.6087 7.20897 12.7954 7.28232 13.0153L9.34482 19.2048L11.6798 16.0915L10.9601 15.3718C10.5695 14.9812 10.5695 14.3482 10.9601 13.9577L16.2931 8.6247C16.6836 8.23417 17.3166 8.23417 17.7071 8.6247C18.0977 9.01522 18.0977 9.64824 17.7071 10.0388L13.0812 14.6647L19.1241 20.7077L23.5616 2.96357L3.46494 10.779Z" fill="#D5C9BE"/>
</svg>
