<svg width="20" height="24" viewBox="0 0 20 24" fill="none" xmlns="http://www.w3.org/2000/svg">
<path d="M7.0006 10.999C7.55288 10.999 8.0006 11.4467 8.0006 11.999C8.00043 12.5512 7.55278 12.999 7.0006 12.999C6.251 12.9991 5.51608 13.1932 4.86681 13.5605L4.59337 13.7285C3.96974 14.1453 3.46722 14.7162 3.13146 15.3828L2.99767 15.6738C2.6697 16.4656 2.58339 17.3371 2.7506 18.1777C2.91784 19.0182 3.33115 19.7905 3.93712 20.3965L4.1715 20.6143C4.73681 21.1016 5.42035 21.4357 6.15587 21.582L6.47228 21.6328C7.21275 21.7238 7.9662 21.6227 8.6588 21.3359L8.9508 21.2021C9.61727 20.8663 10.1875 20.3627 10.6041 19.7393L10.7721 19.4668C11.1397 18.8173 11.3346 18.082 11.3346 17.332V1.33203C11.3346 0.779746 11.7823 0.332031 12.3346 0.332031C12.8521 0.332213 13.2774 0.725509 13.3287 1.22949L13.3346 1.33203L13.3414 1.61328C13.411 3.01368 13.9976 4.34265 14.9938 5.33887L15.1979 5.5332C16.1681 6.41158 17.4131 6.92743 18.7203 6.99219L19.0006 6.99902L19.1031 7.00391C19.6074 7.0551 20.0006 7.48125 20.0006 7.99902C20.0004 8.51664 19.6073 8.94196 19.1031 8.99316L19.0006 8.99902L18.6207 8.98926C16.8522 8.90151 15.1677 8.20414 13.8551 7.01562L13.5797 6.75293C13.4955 6.66871 13.4144 6.58179 13.3346 6.49414V17.332C13.3346 18.5065 13.0074 19.656 12.3932 20.6533L12.2672 20.8506C11.6147 21.8271 10.7042 22.6019 9.63927 23.0898L9.42443 23.1836C8.33939 23.633 7.15221 23.7709 5.99572 23.585L5.76525 23.5439C4.61348 23.3148 3.54929 22.7705 2.69103 21.9736L2.52306 21.8105C1.63734 20.9248 1.03404 19.796 0.789662 18.5674C0.545322 17.3388 0.670664 16.0654 1.15001 14.9082L1.24376 14.6934C1.73169 13.6287 2.50589 12.7188 3.48204 12.0664L3.67931 11.9395C4.67658 11.3252 5.82625 10.9991 7.0006 10.999Z" fill="#D5C9BE"/>
</svg>
