<svg width="26" height="22" viewBox="0 0 26 22" fill="none" xmlns="http://www.w3.org/2000/svg">
<path d="M24 7.00098C23.9998 4.68268 22.1791 2.78988 19.8896 2.67383L19.667 2.66797H6.33301C3.94003 2.66814 2.00018 4.608 2 7.00098V15.001C2 17.3941 3.93992 19.3348 6.33301 19.335H19.667C22.0601 19.3348 24 17.3941 24 15.001V7.00098ZM26 15.001C26 18.4987 23.1646 21.3348 19.667 21.335H6.33301C2.83535 21.3348 0 18.4987 0 15.001V7.00098C0.000175744 3.50343 2.83546 0.668145 6.33301 0.667969H19.667L19.9922 0.675781C23.3386 0.845196 25.9998 3.61249 26 7.00098V15.001Z" fill="#D5C9BE"/>
<path d="M9.83887 6.12981C10.1524 5.9523 10.5377 5.95714 10.8467 6.1425L17.5137 10.1425L17.6201 10.2167C17.8573 10.4049 17.999 10.6925 17.999 10.9999C17.999 11.3074 17.8573 11.595 17.6201 11.7831L17.5137 11.8573L10.8467 15.8573C10.5377 16.0427 10.1524 16.0475 9.83887 15.87C9.52559 15.6925 9.33203 15.36 9.33203 14.9999V6.99992C9.33203 6.6398 9.52559 6.30737 9.83887 6.12981ZM11.332 13.2333L15.0547 10.9999L11.332 8.76555V13.2333Z" fill="#D5C9BE"/>
</svg>
