<svg width="34" height="42" viewBox="0 0 34 42" fill="none" xmlns="http://www.w3.org/2000/svg">
<path d="M30.8953 3.11554C31.324 2.70524 31.9564 2.58604 32.5066 2.81378C33.067 3.0459 33.4322 3.59301 33.4324 4.19952V26.5999C33.4324 26.9976 33.275 27.3792 32.9939 27.6605L31.9324 26.5999L32.9919 27.6624L32.99 27.6634L32.9871 27.6673C32.9847 27.6696 32.9818 27.6716 32.9792 27.6741C32.9741 27.6791 32.9688 27.6849 32.9626 27.6907C32.9504 27.7024 32.9361 27.7159 32.9197 27.7308C32.8868 27.7606 32.8457 27.797 32.7957 27.8382C32.6954 27.9207 32.5595 28.024 32.3855 28.14C32.037 28.3723 31.5362 28.6541 30.8562 28.9261C29.4933 29.4712 27.4352 29.9671 24.4666 29.9671C21.3376 29.9671 18.7483 28.915 16.4421 27.9925C14.0818 27.0484 12.0038 26.2337 9.53296 26.2337C6.90219 26.2337 5.22697 26.6708 4.25659 27.0589C3.96866 27.1741 3.74114 27.2877 3.56616 27.3841V39.6663C3.56616 40.4947 2.89459 41.1663 2.06616 41.1663C1.23773 41.1663 0.566162 40.4947 0.566162 39.6663V4.19952C0.566283 3.80186 0.724418 3.42017 1.00562 3.13898L2.06616 4.19952C1.04385 3.17721 1.00715 3.14008 1.00659 3.138L1.00854 3.13605L1.01245 3.13312C1.01477 3.13083 1.01672 3.12781 1.01929 3.12531C1.02428 3.12043 1.02994 3.11535 1.03589 3.10968C1.0482 3.09794 1.06339 3.08362 1.07983 3.06866C1.11265 3.03885 1.15402 3.00327 1.20386 2.96222C1.30405 2.87971 1.43918 2.77638 1.61304 2.66046C1.96153 2.42813 2.46227 2.14637 3.14233 1.87433C4.50532 1.32914 6.56388 0.833313 9.53296 0.833313C12.6617 0.833342 15.2503 1.88451 17.5564 2.80695C19.9169 3.75114 21.9955 4.56671 24.4666 4.56671C27.0969 4.56667 28.7716 4.12862 29.7419 3.74054C30.2284 3.54597 30.5449 3.36112 30.7214 3.24347C30.8099 3.18446 30.8647 3.14191 30.8884 3.12238C30.8914 3.11996 30.8933 3.11723 30.8953 3.11554ZM9.53296 3.83331C6.90203 3.83331 5.22694 4.27134 4.25659 4.65948C3.96876 4.77462 3.74111 4.88732 3.56616 4.9837V24.1165C4.92027 23.6377 6.85628 23.2337 9.53296 23.2337C12.6618 23.2337 15.2503 24.2849 17.5564 25.2073C19.9169 26.1515 21.9955 26.9671 24.4666 26.9671C27.0968 26.9671 28.7716 26.529 29.7419 26.1409C30.0297 26.0258 30.2574 25.9121 30.4324 25.8157V6.68195C29.0783 7.1607 27.1431 7.56667 24.4666 7.56671C21.3376 7.56671 18.7483 6.51555 16.4421 5.59308C14.0817 4.64892 12.0039 3.83334 9.53296 3.83331ZM30.8835 3.12823L30.8806 3.13019C30.8839 3.12696 30.8871 3.12362 30.8904 3.12042L30.8835 3.12823ZM30.9011 3.11066L30.8904 3.12042C30.892 3.11882 30.8936 3.11713 30.8953 3.11554C30.8981 3.11313 30.9011 3.11066 30.9011 3.11066Z" fill="url(#paint0_linear_4368_1819)"/>
<defs>
<linearGradient id="paint0_linear_4368_1819" x1="15.3445" y1="0.833312" x2="15.3445" y2="41.1663" gradientUnits="userSpaceOnUse">
<stop offset="0.0001" stop-color="#ED0189"/>
<stop offset="1" stop-color="#F3293B"/>
</linearGradient>
</defs>
</svg>
