<svg width="42" height="46" viewBox="0 0 42 46" fill="none" xmlns="http://www.w3.org/2000/svg">
<path fill-rule="evenodd" clip-rule="evenodd" d="M19.1303 1.03679C20.293 0.390811 21.707 0.390811 22.8697 1.03679L39.6697 10.3701C40.8919 11.0492 41.65 12.3375 41.65 13.7356V32.2643C41.65 33.6626 40.8919 34.9509 39.6697 35.6299L22.8697 44.9632C21.707 45.6091 20.293 45.6093 19.1303 44.9632L2.33025 35.6299C1.10801 34.9509 0.349976 33.6626 0.349976 32.2643V13.7356C0.349976 12.3375 1.10801 11.0492 2.33025 10.3701L19.1303 1.03679ZM21.1698 4.09636C21.0641 4.03763 20.9358 4.03763 20.8301 4.09636L4.02999 13.4297C3.91888 13.4914 3.84998 13.6085 3.84998 13.7356V32.2643C3.84998 32.3914 3.91888 32.5086 4.02999 32.5704L20.8301 41.9037C20.9358 41.9623 21.0641 41.9623 21.1698 41.9037L37.9698 32.5704C38.0811 32.5086 38.15 32.3914 38.15 32.2643V13.7356C38.15 13.6085 38.0811 13.4914 37.9698 13.4297L21.1698 4.09636Z" fill="url(#paint0_linear_4368_1820)"/>
<path fill-rule="evenodd" clip-rule="evenodd" d="M9.91664 23C9.91664 16.8788 14.8788 11.9167 21 11.9167C27.1212 11.9167 32.0833 16.8788 32.0833 23C32.0833 29.1213 27.1212 34.0833 21 34.0833C14.8788 34.0833 9.91664 29.1213 9.91664 23ZM21 15.4167C16.8119 15.4167 13.4166 18.8119 13.4166 23C13.4166 27.1881 16.8119 30.5833 21 30.5833C25.1881 30.5833 28.5833 27.1881 28.5833 23C28.5833 18.8119 25.1881 15.4167 21 15.4167Z" fill="url(#paint1_linear_4368_1820)"/>
<defs>
<linearGradient id="paint0_linear_4368_1820" x1="18.9206" y1="0.552306" x2="18.9206" y2="45.4477" gradientUnits="userSpaceOnUse">
<stop offset="0.0001" stop-color="#ED0189"/>
<stop offset="1" stop-color="#F3293B"/>
</linearGradient>
<linearGradient id="paint1_linear_4368_1820" x1="18.9206" y1="0.552306" x2="18.9206" y2="45.4477" gradientUnits="userSpaceOnUse">
<stop offset="0.0001" stop-color="#ED0189"/>
<stop offset="1" stop-color="#F3293B"/>
</linearGradient>
</defs>
</svg>
